<?xml version="1.0" encoding="utf-8"?>
<!-- Generator: Adobe Illustrator 24.0.1, SVG Export Plug-In . SVG Version: 6.00 Build 0)  -->
<svg version="1.1" id="Layer_1" xmlns="http://www.w3.org/2000/svg" xmlns:xlink="http://www.w3.org/1999/xlink" x="0px" y="0px"
	 viewBox="0 0 595.3 841.9" style="enable-background:new 0 0 595.3 841.9;" xml:space="preserve">
<style type="text/css">
	.st0{fill:#FFFFFF;}
	.st1{fill:#00ABEA;}
	.st2{fill:#75C049;}
	.st3{fill:#EC2228;}
	.st4{fill:#E71C35;}
	.st5{fill:#171C18;}
	.st6{fill:#CCC398;}
</style>
<rect x="-475.4" y="208.1" class="st0" width="357.1" height="299.9"/>
<g>
	<path class="st1" d="M47.6,95.6h-9.8V113c2.8-2.5,6.1-4.5,9.8-5.7V95.6z"/>
	<circle class="st1" cx="56.3" cy="133.5" r="8.8"/>
	<path class="st1" d="M74,128l6.9-6.8c-4.5-9.1-13.9-15.3-24.7-15.3c-3,0-6,0.5-8.7,1.4v9.8c2.6-1.4,5.5-2.2,8.7-2.2
		C64.6,114.9,71.7,120.4,74,128z"/>
</g>
<g>
	<g>
		<path class="st2" d="M191.3,142.1c-3.1,0-5.6,1-7.5,3s-2.9,4.5-2.9,7.5s1,5.5,3,7.5l0,0c2,2,4.6,3,7.7,3c3.9,0,6.8-1.5,8.8-4.5
			l0.5-0.8l-4.3-2.4l-0.4,0.7c-0.9,1.5-2.4,2.3-4.5,2.3c-2.7,0-4.7-1.3-5.5-3.4H201l0.1-0.7c0.1-0.5,0.1-1,0.1-1.6
			c0-2.9-0.9-5.4-2.8-7.4C196.6,143.2,194.2,142.1,191.3,142.1z M186.1,150.5c0.8-2.3,2.6-3.6,5.2-3.6c2.4,0,4.1,1.3,4.8,3.6H186.1z
			"/>
		<polygon class="st2" points="164.4,148.5 156.8,135.8 151.6,135.8 151.6,163.2 156.7,163.2 156.7,145.4 163.7,157.1 165.2,157.1 
			172.2,145.4 172.2,163.2 177.3,163.2 177.3,135.8 172.1,135.8 		"/>
		<path class="st2" d="M221.2,144.7c-1.6-1.4-3.6-2.1-6.1-2.1c-2.8,0-5.2,1-7.2,3.1c-2,2-3,4.5-3,7.4s1,5.4,3,7.5
			c1.9,2,4.4,3.1,7.2,3.1c2.4,0,4.5-0.7,6.1-2.1v1.7h4.9v-30.4h-4.9V144.7z M221.2,153.1c0,1.6-0.5,3-1.6,4.1s-2.4,1.6-4,1.6
			s-2.9-0.5-4-1.6s-1.6-2.5-1.6-4.1s0.5-3,1.6-4l0,0c1.1-1.1,2.4-1.6,4-1.6s3,0.5,4,1.6l0,0C220.7,150.1,221.2,151.4,221.2,153.1z"
			/>
		<path class="st2" d="M233.6,141.5c-0.4,0-0.8-0.1-1.2-0.3l-1.3-0.6v22.6h4.9v-22.6l-1.3,0.6C234.4,141.4,234,141.5,233.6,141.5z"
			/>
		<path class="st2" d="M233.6,133.6c-1.7,0-3,1.4-3,3c0,0.8,0.3,1.6,0.9,2.1c0.6,0.6,1.3,0.9,2.1,0.9c1.7,0,3-1.3,3-3
			C236.6,135,235.3,133.6,233.6,133.6z"/>
		<path class="st2" d="M256.2,143v1.7c-1.6-1.4-3.6-2.1-6.1-2.1c-2.8,0-5.2,1-7.2,3.1c-2,2-3,4.5-3,7.4s1,5.4,3,7.5
			c1.9,2,4.4,3.1,7.2,3.1c2.4,0,4.5-0.7,6.1-2.1v1.7h4.9V143H256.2z M256.2,153.1c0,1.6-0.5,3-1.6,4.1s-2.4,1.6-4,1.6
			s-2.9-0.5-4-1.6s-1.6-2.5-1.6-4.1s0.5-3,1.6-4l0,0c1.1-1.1,2.4-1.6,4-1.6s3,0.5,4,1.6l0,0C255.7,150.1,256.2,151.4,256.2,153.1z"
			/>
	</g>
	<path class="st2" d="M92.2,105.3L82.3,124l0,0l-8,15.1c0,0-1.1,2.1-1.7,3.2c-3.2,5.7-9.3,9.6-16.3,9.6c-10.2,0-18.5-8.2-18.5-18.4
		l0,0v-0.2l0,0l0,0V113c-5.5,5-9,12.3-9,20.4c0,15.2,12.3,27.6,27.6,27.6c6.4,0,12.3-2.2,16.9-5.8l0,0c0.1-0.1,0.1-0.1,0.2-0.2
		c3.1-2.5,5.7-5.7,7.5-9.3l0,0l11.2-21.1l4.9,9.7l5,9.9l8.6,17h10.6L92.2,105.3z"/>
</g>
<g>
	<polygon class="st3" points="141.5,161.3 112.3,105.3 107.2,114.8 107.2,114.8 102.2,124.6 107.3,134.5 112.3,124.6 131.4,161.3 	
		"/>
	<polygon class="st3" points="83.4,161.3 93.5,161.3 102.1,144.3 97,134.4 	"/>
	<g>
		<path class="st3" d="M189.3,102.3H188c-1.9,0-3.5,0.4-4.8,1.2c-0.3,0.2-0.5,0.3-0.8,0.5v-1.3h-6.3V127h6.3v-12.8
			c0-2,0.5-3.4,1.5-4.2c1.1-0.9,2.4-1.3,3.9-1.2l1.3,0.1v-6.6H189.3z"/>
		<path class="st3" d="M293.3,103.1c-3.4,0-6.2,1.2-8.5,3.5s-3.5,5.2-3.5,8.5c0,3.4,1.2,6.2,3.5,8.5s5.2,3.5,8.5,3.5
			s6.2-1.2,8.5-3.5s3.5-5.2,3.5-8.5s-1.2-6.2-3.5-8.5C299.5,104.3,296.7,103.1,293.3,103.1z M297.6,119.4c-1.2,1.2-2.6,1.7-4.3,1.7
			c-1.7,0-3.1-0.6-4.2-1.7c-1.2-1.2-1.7-2.6-1.7-4.3c0-1.7,0.6-3.2,1.7-4.3c1.2-1.2,2.5-1.7,4.2-1.7s3.1,0.6,4.3,1.7
			c1.2,1.2,1.7,2.6,1.7,4.3C299.3,116.8,298.8,118.2,297.6,119.4L297.6,119.4z"/>
		<path class="st3" d="M326.2,106.3c-1.6-1.7-4-2.7-6.7-2.7c-2.1,0-3.9,0.5-5.4,1.6v-1H308v22.9h6.1V115c0-1.9,0.4-3.3,1.3-4.2
			c0.8-0.8,1.9-1.3,3.4-1.3c2.5,0,3.8,1.4,3.8,4v13.6h6v-13.8C328.7,110.4,327.8,108,326.2,106.3z"/>
		<path class="st3" d="M276.1,114.2c-1.6-1-3.5-1.5-5.3-1.9c-1.4-0.4-3.1-1-3.1-1.9c0-1.5,2.1-1.5,2.4-1.5c2.2,0,2.9,1.1,3.2,1.9
			l0.5,1.3l5.2-2.9l-0.5-1.1c-1.5-3.1-4.7-4.9-8.5-4.9c-2.4,0-4.4,0.7-6,2l0,0c-1.6,1.4-2.5,3.2-2.5,5.3c0,2.3,1,4.2,3,5.4
			c1.6,1,3.5,1.5,5.2,2h0.1l0,0c2,0.5,3.1,1.1,3.1,1.8c0,1.3-1.5,1.5-2.8,1.5c-1.9,0-3.4-0.9-3.9-2.3l-0.5-1.4l-5.3,3.1l0.4,1
			c0.7,1.7,1.9,3.1,3.5,4.1s3.6,1.5,5.8,1.5c2.5,0,4.6-0.7,6.2-1.9c1.7-1.3,2.7-3.2,2.7-5.4C279.1,117.3,278.1,115.5,276.1,114.2z"
			/>
		<path class="st3" d="M251.7,105.5c-1.8-1.4-3.9-2.1-6.5-2.1c-3.2,0-6,1.2-8.2,3.5s-3.4,5.2-3.4,8.5s1.1,6.2,3.4,8.5
			c2.2,2.3,5,3.5,8.2,3.5c2.6,0,4.7-0.7,6.5-2.1v1.5h6.1V92.3h-6.1L251.7,105.5L251.7,105.5z M250,119.8c-1.2,1.2-2.6,1.7-4.3,1.7
			s-3.1-0.6-4.3-1.7c-1.2-1.2-1.7-2.6-1.7-4.4c0-1.7,0.6-3.2,1.7-4.3l0,0c1.1-1.2,2.5-1.7,4.3-1.7c1.7,0,3.2,0.6,4.3,1.7l0,0
			c1.2,1.2,1.7,2.6,1.7,4.3C251.7,117.1,251.1,118.6,250,119.8z"/>
		<path class="st3" d="M206.7,105.5c-1.8-1.4-3.9-2.1-6.5-2.1c-3.2,0-6,1.2-8.2,3.5s-3.4,5.2-3.4,8.5s1.1,6.2,3.4,8.5
			c2.2,2.3,5,3.5,8.2,3.5c2.6,0,4.7-0.7,6.5-2.1v1.5h6.1v-23.5h-6.1V105.5z M205,119.8c-1.2,1.2-2.6,1.7-4.3,1.7s-3.1-0.6-4.3-1.7
			c-1.2-1.2-1.7-2.6-1.7-4.4c0-1.7,0.6-3.2,1.7-4.3l0,0c1.1-1.2,2.5-1.7,4.3-1.7c1.7,0,3.2,0.6,4.3,1.7l0,0c1.2,1.2,1.7,2.6,1.7,4.3
			C206.7,117.1,206.1,118.6,205,119.8z"/>
		<path class="st3" d="M220.6,103.4c-2.3,0-4.2,0.6-5.7,1.8l-0.5,0.4v7.1l2.1-2.2c0.8-0.8,1.9-1.2,3.3-1.2c2.5,0,3.8,1.4,3.8,4v13.6
			h6.1v-13.8c0-2.9-0.9-5.3-2.5-7C225.7,104.3,223.3,103.4,220.6,103.4z"/>
		<path class="st3" d="M170,113.6c-0.5-0.6-1.1-1.1-1.8-1.6c0.1-0.2,0.2-0.3,0.4-0.5c0.8-1.3,1.2-2.8,1.2-4.5c0-1.3-0.2-2.5-0.7-3.5
			c-0.5-1.1-1.2-2-2.1-2.8c-1.8-1.5-4.1-2.2-7-2.2h-8.1v29.4h8.1c2.2,0,3.7-0.1,4.8-0.3c1.2-0.2,2.3-0.7,3.2-1.3
			c1.2-0.8,2.2-1.8,2.9-3s1-2.6,1-4C172,117,171.3,115.1,170,113.6L170,113.6z M158.2,116h2.6c1.6,0,2.8,0.3,3.6,1
			c0.7,0.5,1,1.2,1,2.1c0,1.3-0.4,1.8-0.8,2c-0.6,0.4-1.8,0.8-4.4,0.8h-2L158.2,116L158.2,116z M162.6,109.2
			c-0.6,0.5-1.4,0.8-2.5,0.8h-1.9v-5.6h1.6c1.3,0,2.2,0.3,2.8,0.8c0.5,0.5,0.8,1.1,0.8,1.9C163.4,108.1,163.1,108.7,162.6,109.2z"/>
	</g>
</g>
<g>
	<g>
		<path class="st2" d="M-325.6,450c-5.8,0-10.7,1.9-14.4,5.7c-3.7,3.8-5.6,8.6-5.6,14.3c0,5.7,1.9,10.5,5.6,14.4l0,0
			c3.8,3.7,8.8,5.6,14.7,5.6c7.4,0,13-2.9,16.8-8.7l1-1.5l-8.1-4.6l-0.8,1.4c-1.8,2.9-4.6,4.3-8.6,4.3c-5.1,0-8.9-2.4-10.5-6.5h28.5
			l0.2-1.4c0.2-1,0.2-2,0.2-3c0-5.5-1.8-10.3-5.3-14.1C-315.4,452-320,450-325.6,450z M-335.6,465.8c1.4-4.3,5.1-6.8,10-6.8
			c4.5,0,7.8,2.5,9.2,6.8H-335.6z"/>
		<polygon class="st2" points="-376.8,462.1 -391.5,437.8 -401.4,437.8 -401.4,490 -391.6,490 -391.6,456.2 -378.2,478.5 
			-375.5,478.5 -362.1,456.2 -362.1,490 -352.3,490 -352.3,437.8 -362.3,437.8 		"/>
		<path class="st2" d="M-268.6,454.8c-3-2.7-6.9-4.1-11.5-4.1c-5.3,0-10,2-13.7,5.9s-5.6,8.7-5.6,14.1c0,5.5,1.9,10.3,5.6,14.2
			c3.7,3.9,8.3,5.8,13.7,5.8c4.6,0,8.5-1.4,11.5-4.1v3.2h9.4v-58.1h-9.4V454.8z M-268.6,470.8c0,3.1-1,5.6-3.1,7.8
			c-2.1,2.1-4.6,3.1-7.7,3.1s-5.6-1-7.6-3.1c-2.1-2.1-3.1-4.7-3.1-7.8c0-3.1,1-5.6,3.1-7.7l0,0c2-2.1,4.5-3.1,7.6-3.1s5.6,1,7.7,3.1
			l0,0C-269.6,465.1-268.6,467.7-268.6,470.8z"/>
		<path class="st2" d="M-244.8,448.6c-0.8,0-1.6-0.2-2.3-0.6l-2.4-1.2V490h9.4v-43.2l-2.4,1.2C-243.3,448.5-244.1,448.6-244.8,448.6
			z"/>
		<path class="st2" d="M-244.9,433.7c-3.2,0-5.8,2.6-5.8,5.8c0,1.5,0.6,3,1.7,4c1.1,1.1,2.5,1.7,4.1,1.7c3.2,0,5.7-2.6,5.7-5.7
			C-239.1,436.3-241.7,433.7-244.9,433.7z"/>
		<path class="st2" d="M-201.7,451.6v3.2c-3-2.7-6.9-4.1-11.5-4.1c-5.3,0-10,2-13.7,5.9s-5.6,8.7-5.6,14.1c0,5.5,1.9,10.3,5.6,14.2
			c3.7,3.9,8.3,5.8,13.7,5.8c4.6,0,8.5-1.4,11.5-4.1v3.2h9.4v-38.3L-201.7,451.6L-201.7,451.6z M-201.7,470.8c0,3.1-1,5.6-3.1,7.8
			c-2.1,2.1-4.6,3.1-7.7,3.1c-3.1,0-5.6-1-7.6-3.1c-2.1-2.1-3.1-4.7-3.1-7.8c0-3.1,1-5.6,3.1-7.7l0,0c2-2.1,4.5-3.1,7.6-3.1
			s5.6,1,7.7,3.1l0,0C-202.7,465.1-201.7,467.7-201.7,470.8z"/>
	</g>
	<path class="st1" d="M-376.5,225.3h-18.8v33.3c5.4-4.9,11.7-8.6,18.8-11V225.3z"/>
	<polygon class="st3" points="-197.3,350.5 -253,243.9 -262.8,261.9 -262.8,261.9 -272.2,280.6 -262.6,299.6 -253.1,280.5 
		-216.6,350.5 	"/>
	<circle class="st1" cx="-359.9" cy="297.5" r="16.7"/>
	<path class="st1" d="M-326,287.1l13.3-13.1c-8.6-17.3-26.5-29.2-47.1-29.2c-5.8,0-11.4,1-16.6,2.7v18.7c4.9-2.6,10.6-4.1,16.6-4.1
		C-343.9,262.1-330.5,272.6-326,287.1z"/>
	<polygon class="st3" points="-308.1,350.5 -288.8,350.5 -272.5,318.2 -282.1,299.2 	"/>
	<path class="st2" d="M-291.3,243.8l-18.9,35.7l0,0l-15.3,28.9c0,0-2.1,4.1-3.3,6.2c-6,11-17.7,18.4-31,18.4
		c-19.4,0-35.2-15.7-35.4-35.1l0,0v-0.3l0,0l0,0v-38.9c-10.6,9.6-17.2,23.5-17.2,38.9c0,29.1,23.6,52.6,52.6,52.6
		c12.2,0,23.4-4.2,32.3-11.1l0,0c0.1-0.1,0.3-0.2,0.4-0.4c6-4.8,10.9-10.8,14.4-17.7l0,0l21.3-40.2l9.4,18.6l9.6,19l16.4,32.4h20.3
		L-291.3,243.8z"/>
	<g>
		<path class="st3" d="M-394.2,374h-2.4c-3.5,0-6.6,0.8-9.1,2.3c-0.5,0.3-1,0.6-1.5,1v-2.5h-12v46.3h12v-24.4c0-3.8,1-6.4,2.9-8
			c2.1-1.7,4.5-2.4,7.5-2.3l2.5,0.1V374H-394.2z"/>
		<path class="st3" d="M-195.7,375.5c-6.4,0-11.9,2.2-16.3,6.6c-4.4,4.4-6.6,9.9-6.6,16.3s2.2,11.9,6.6,16.3
			c4.4,4.4,9.9,6.6,16.3,6.6c6.4,0,11.9-2.2,16.3-6.6c4.4-4.4,6.7-9.9,6.7-16.3c0-6.3-2.3-11.8-6.7-16.3
			C-183.8,377.7-189.3,375.5-195.7,375.5z M-187.6,406.6c-2.2,2.2-4.9,3.3-8.1,3.3c-3.2,0-5.9-1.1-8.1-3.3c-2.2-2.2-3.3-4.9-3.3-8.2
			c0-3.3,1.1-6,3.3-8.2s4.8-3.3,8.1-3.3s5.9,1.1,8.1,3.3c2.2,2.2,3.3,4.9,3.3,8.2S-185.3,404.4-187.6,406.6L-187.6,406.6z"/>
		<path class="st3" d="M-133,381.5c-3.1-3.3-7.5-5.1-12.7-5.1c-4.1,0-7.5,1-10.3,3v-2h-11.5v43.8h11.5v-23c0-3.6,0.8-6.3,2.5-8.1
			c1.5-1.6,3.7-2.4,6.5-2.4c4.8,0,7.3,2.6,7.3,7.6v25.9h11.5v-26.3C-128.2,389.5-129.8,384.8-133,381.5z"/>
		<path class="st3" d="M-228.6,396.6c-3-1.9-6.6-2.9-10.1-3.6c-2.7-0.7-5.9-2-5.9-3.5c0-2.8,4.1-2.8,4.6-2.8c4.2,0,5.5,2,6.2,3.5
			l1,2.5l10-5.6l-1-2c-2.9-5.9-9-9.4-16.2-9.4c-4.5,0-8.3,1.3-11.4,3.8l0,0c-3.1,2.6-4.7,6.1-4.7,10.2c0,4.4,1.9,7.9,5.8,10.4
			c3,1.9,6.7,2.9,9.9,3.8l0.2,0.1h0.1c3.7,0.9,5.9,2.1,5.9,3.5c0,2.4-2.9,2.9-5.3,2.9c-3.7,0-6.5-1.7-7.4-4.5l-0.9-2.8l-10.2,5.8
			l0.8,1.9c1.3,3.2,3.7,5.9,6.8,7.8c3.1,1.8,6.9,2.8,11,2.8c4.7,0,8.7-1.2,11.9-3.7c3.3-2.6,5.1-6.1,5.1-10.4
			C-222.8,402.6-224.7,399.1-228.6,396.6z"/>
		<path class="st3" d="M-275.1,380c-3.3-2.6-7.5-4-12.4-4c-6.1,0-11.4,2.3-15.7,6.7c-4.3,4.4-6.4,9.9-6.4,16.2
			c0,6.3,2.2,11.8,6.4,16.2c4.2,4.4,9.5,6.7,15.7,6.7c4.9,0,9-1.3,12.4-4v2.9h11.5v-65.9h-11.5V380z M-278.4,407.2
			c-2.2,2.2-4.9,3.3-8.2,3.3c-3.3,0-5.9-1.1-8.1-3.3c-2.2-2.3-3.3-5-3.3-8.3s1.1-6,3.3-8.2l0,0c2.2-2.2,4.8-3.3,8.1-3.3
			c3.3,0,6,1.1,8.2,3.3l0,0c2.2,2.2,3.3,4.9,3.3,8.2C-275.1,402.2-276.2,405-278.4,407.2z"/>
		<path class="st3" d="M-360.9,380c-3.3-2.6-7.5-4-12.4-4c-6.1,0-11.4,2.3-15.7,6.7c-4.3,4.4-6.4,9.9-6.4,16.2
			c0,6.3,2.2,11.8,6.4,16.2c4.2,4.4,9.5,6.7,15.7,6.7c4.9,0,9-1.3,12.4-4v2.9h11.5V376h-11.5V380z M-364.2,407.2
			c-2.2,2.2-4.9,3.3-8.2,3.3c-3.3,0-5.9-1.1-8.1-3.3c-2.2-2.3-3.3-5-3.3-8.3s1.1-6,3.3-8.2l0,0c2.2-2.2,4.8-3.3,8.1-3.3
			c3.3,0,6,1.1,8.2,3.3l0,0c2.2,2.2,3.3,4.9,3.3,8.2C-360.9,402.2-362,405-364.2,407.2z"/>
		<path class="st3" d="M-334.4,376c-4.3,0-8,1.2-10.9,3.5l-0.9,0.7v13.6l4.1-4.2c1.5-1.5,3.6-2.3,6.4-2.3c4.8,0,7.3,2.6,7.3,7.6
			v25.9h11.5v-26.3c0-5.5-1.7-10.1-4.8-13.4C-324.8,377.8-329.2,376-334.4,376z"/>
		<path class="st3" d="M-431,395.5c-1-1.1-2.1-2.1-3.4-3c0.2-0.3,0.5-0.6,0.7-1c1.6-2.4,2.4-5.3,2.4-8.6c0-2.4-0.5-4.7-1.4-6.7
			s-2.3-3.8-4.1-5.3c-3.4-2.8-7.9-4.2-13.3-4.2h-15.4v56.1h15.4c4.1,0,7.2-0.2,9.2-0.6c2.3-0.5,4.4-1.3,6.1-2.4
			c2.4-1.5,4.2-3.4,5.5-5.7c1.3-2.3,2-4.9,2-7.7C-427.2,402.1-428.5,398.4-431,395.5L-431,395.5z M-453.5,400.1h5
			c3,0,5.3,0.6,6.9,1.9c1.3,1,1.9,2.3,1.9,4c0,2.5-0.8,3.4-1.6,3.8c-1.1,0.7-3.4,1.6-8.4,1.6h-3.8V400.1z M-445.1,387.1
			c-1.1,1-2.6,1.5-4.7,1.5h-3.7V378h3c2.4,0,4.2,0.5,5.4,1.5c1,0.9,1.5,2,1.5,3.7C-443.6,385-444,386.2-445.1,387.1z"/>
	</g>
</g>
<rect x="235.9" y="221.7" class="st4" width="86.1" height="86.1"/>
<rect x="134.1" y="221.7" class="st5" width="86.1" height="86.1"/>
<rect x="29.2" y="221.7" class="st6" width="86.1" height="86.1"/>
</svg>
